<svg viewBox="0 0 84 79" fill="none" xmlns="http://www.w3.org/2000/svg">
<path d="M39.0805 69.3586V56.0845C42.1611 56.4532 45.3133 56.6007 50.7581 56.6007H69.2418V44.2116H53.7671V31.6012H69.2418V20.7607H50.6148C45.8148 20.7607 43.2357 20.9082 39.9402 21.2769V8.00281L73.4686 8.0028C79.0567 8.0028 81.0627 7.92906 84 7.78157C83.5701 11.3951 83.4269 13.9761 83.4269 18.5483V58.8131C83.4269 63.9015 83.5701 66.63 84 69.5798C80.9194 69.4323 78.9134 69.3586 73.4686 69.3586H39.0805Z" fill="#9D42FF"/>
<path d="M66.1315 0C65.5614 4.50238 65.3737 10.7001 65.3737 15.6714H30.2123C24.7975 15.6721 21.8531 18.2971 21.8531 22.8927C21.8541 27.4876 24.9914 30.3964 30.0267 30.3964H65.3737V45.4037H29.3617C23.2813 45.4037 19.6658 48.5907 19.6647 54.0295C19.6647 59.5627 23.2766 62.845 29.2612 62.8461H65.3737C65.3737 69.4121 65.5614 74.5758 66.1315 78.6091C62.0468 78.4216 59.2914 78.3267 52.0732 78.3267H26.2222C9.68933 78.3263 6.95415e-05 70.3529 0 56.8462C0 50.6554 2.0849 45.5865 6.17083 42.0221C8.92581 39.6776 11.3995 38.5576 16.0534 37.526C12.1587 36.1193 10.4494 35.1782 8.35923 33.3963C4.7488 30.2074 2.84604 25.7053 2.8457 19.9843C2.8457 7.6035 11.8743 0.28329 27.2661 0.282437H52.1659C59.9559 0.282437 61.2864 0.281326 66.1315 0Z" fill="#FFFFCC"/>
</svg>
