<svg viewBox="0 0 84 18" fill="none" xmlns="http://www.w3.org/2000/svg">
<path d="M75.732 12.212V14.456C76.248 14.396 76.68 14.372 77.712 14.372H81.492C82.404 14.372 82.74 14.384 83.256 14.408C83.184 13.928 83.16 13.484 83.16 12.656V6.104C83.16 5.36 83.184 4.94 83.256 4.352C82.764 4.376 82.428 4.388 81.492 4.388H77.664C76.848 4.388 76.44 4.364 75.876 4.304V6.548C76.428 6.488 76.86 6.464 77.664 6.464H80.784V8.228H78.192C77.4 8.228 77.112 8.216 76.392 8.144V10.364C76.956 10.304 77.364 10.28 78.192 10.28H80.784V12.296H77.688C76.776 12.296 76.248 12.272 75.732 12.212Z" fill="#7B00FF"/>
<path d="M32.2 5.888L34.48 9.296C34.828 9.812 35.056 10.196 35.344 10.724C35.296 10.172 35.272 9.62 35.272 8.948V6.212C35.272 5.42 35.248 4.94 35.176 4.388H37.732C37.66 4.928 37.636 5.432 37.636 6.212V12.584C37.636 13.316 37.672 13.868 37.732 14.372H35.104C34.888 13.916 34.612 13.472 34.204 12.848L31.984 9.5C31.66 9.02 31.456 8.66 31.12 8.024C31.18 8.564 31.204 9.224 31.204 9.812V12.5C31.204 13.328 31.228 13.856 31.3 14.372H28.744C28.816 13.904 28.84 13.376 28.84 12.488V6.176C28.84 5.48 28.816 4.94 28.744 4.388H31.348C31.468 4.712 31.732 5.192 32.2 5.888ZM44.3563 6.512V12.56C44.3563 13.28 44.3803 13.808 44.4523 14.372H41.8003C41.8723 13.808 41.8963 13.316 41.8963 12.56V6.512H40.4803C39.7243 6.512 39.5203 6.524 38.6683 6.596V4.304C39.0643 4.352 39.7243 4.388 40.4563 4.388H45.7123C46.5523 4.388 47.0323 4.364 47.5843 4.304V6.596C47.0443 6.536 46.5763 6.512 45.7123 6.512H44.3563Z" fill="black"/>
<path d="M57.1646 14.372H54.3566C54.2606 13.796 54.1886 13.484 54.0686 13.076L53.7446 12.056H50.3246L50.0006 13.076C49.8446 13.556 49.7606 13.928 49.7006 14.372H46.8926C47.0726 14.012 47.1806 13.724 47.4686 12.908L50.0606 5.684C50.2766 5.096 50.3846 4.736 50.4446 4.388H53.5766C53.6606 4.736 53.7446 5.048 53.9846 5.684L56.5886 12.908C56.8166 13.544 57.0086 14.036 57.1646 14.372ZM53.1566 10.04L52.0166 6.44L50.9006 10.04H53.1566ZM63.034 14.372H59.77C58.858 14.372 58.51 14.384 57.994 14.408C58.066 13.892 58.09 13.484 58.09 12.644V6.08C58.09 5.444 58.066 4.928 57.994 4.352C58.606 4.388 58.774 4.388 59.758 4.388H62.902C64.846 4.388 65.986 5.324 65.986 6.908C65.986 7.64 65.746 8.216 65.29 8.624C65.026 8.852 64.81 8.972 64.318 9.152C64.906 9.284 65.218 9.428 65.566 9.728C66.082 10.184 66.346 10.832 66.346 11.624C66.346 13.352 65.122 14.372 63.034 14.372ZM60.442 8.24H62.554C63.19 8.24 63.586 7.868 63.586 7.28C63.586 6.692 63.214 6.356 62.53 6.356H60.442V8.24ZM60.442 10.16V12.392H62.65C63.406 12.392 63.862 11.972 63.862 11.264C63.862 10.568 63.406 10.16 62.638 10.16H60.442ZM72.9805 14.372H69.3325C68.5045 14.372 68.0125 14.384 67.5565 14.408C67.6285 13.988 67.6525 13.46 67.6525 12.656V6.32C67.6525 5.48 67.6285 4.964 67.5565 4.388H70.1725C70.0885 5.012 70.0765 5.348 70.0765 6.284V12.236H72.9805C74.0005 12.236 74.4085 12.224 74.9725 12.152V14.456C74.5285 14.396 73.9405 14.372 72.9805 14.372Z" fill="#7B00FF"/>
<path d="M27.2559 4.35156C27.1839 4.92756 27.1602 5.72044 27.1602 6.35645H22.7197C22.0359 6.35654 21.6641 6.69235 21.6641 7.28027C21.6642 7.86812 22.0604 8.24023 22.6963 8.24023H27.1602V10.1602H22.6123C21.8444 10.1602 21.3878 10.5679 21.3877 11.2637C21.3877 11.9716 21.8438 12.3915 22.5996 12.3916H27.1602C27.1602 13.2316 27.1839 13.8922 27.2559 14.4082C26.74 14.3842 26.392 14.3721 25.4805 14.3721H22.2158C20.1279 14.372 18.9043 13.352 18.9043 11.624C18.9043 10.832 19.1676 10.1835 19.6836 9.72754C20.0315 9.42761 20.3439 9.28432 20.9316 9.15234C20.4398 8.97238 20.2239 8.85199 19.96 8.62402C19.504 8.21606 19.2637 7.6401 19.2637 6.9082C19.2637 5.3243 20.4039 4.3878 22.3477 4.3877H25.4922C26.476 4.3877 26.644 4.38755 27.2559 4.35156Z" fill="black"/>
<path d="M8.268 12.212V14.456C7.752 14.396 7.32 14.372 6.288 14.372H2.508C1.596 14.372 1.26 14.384 0.744 14.408C0.816 13.928 0.84 13.484 0.84 12.656V6.104C0.84 5.36 0.816 4.94 0.744 4.352C1.236 4.376 1.572 4.388 2.508 4.388H6.336C7.152 4.388 7.56 4.364 8.124 4.304V6.548C7.572 6.488 7.14 6.464 6.336 6.464H3.216V8.228H5.808C6.6 8.228 6.888 8.216 7.608 8.144V10.364C7.044 10.304 6.636 10.28 5.808 10.28H3.216V12.296H6.312C7.224 12.296 7.752 12.272 8.268 12.212ZM11.9222 5.684L13.6622 11.456C13.7582 11.78 13.7582 11.78 13.8902 12.284C14.0342 11.756 14.0582 11.684 14.1182 11.456L15.8582 5.684C16.0142 5.132 16.0982 4.796 16.1342 4.388H18.9542C18.7862 4.748 18.6782 5.024 18.3782 5.852L15.8342 13.076C15.6302 13.664 15.5102 14.072 15.4502 14.372H12.3302C12.2702 14.06 12.1502 13.652 11.9462 13.076L9.39019 5.852C9.15019 5.156 9.03019 4.856 8.82619 4.388H11.6342C11.6822 4.772 11.7902 5.24 11.9222 5.684Z" fill="black"/>
</svg>
